<?xml version="1.0" standalone="no"?>
<!DOCTYPE svg PUBLIC "-//W3C//DTD SVG 20010904//EN"
 "http://www.w3.org/TR/2001/REC-SVG-20010904/DTD/svg10.dtd">
<svg version="1.0" xmlns="http://www.w3.org/2000/svg"
 width="720.000000pt" height="720.000000pt" viewBox="0 0 720.000000 720.000000"
 preserveAspectRatio="xMidYMid meet">
<metadata>
Created by potrace 1.14, written by Peter Selinger 2001-2017
</metadata>
<g transform="translate(0.000000,720.000000) scale(0.100000,-0.100000)"
fill="#000000" stroke="none">
<path d="M740 3625 l0 -1435 175 0 175 0 0 1260 0 1260 860 0 860 0 0 -280 0
-280 -525 0 -525 0 0 -170 0 -170 525 0 525 0 0 -305 0 -305 -525 0 -525 0 0
-505 0 -505 165 0 165 0 0 335 0 335 1165 0 1165 0 0 175 0 175 -630 0 -630 0
0 750 0 750 1480 0 1480 0 0 -280 0 -280 -1145 0 -1145 0 0 -170 0 -170 630 0
630 0 0 -810 0 -810 165 0 165 0 0 810 0 810 350 0 350 0 0 -810 0 -810 165 0
165 0 0 1435 0 1435 -2855 0 -2855 0 0 -1435z"/>
</g>
</svg>
